<svg id="visual" viewBox="0 0 900 600" width="900" height="600" xmlns="http://www.w3.org/2000/svg" xmlns:xlink="http://www.w3.org/1999/xlink" version="1.1"><rect x="0" y="0" width="900" height="600" fill="#005b5d"></rect><path d="M0 407L21.5 412.7C43 418.3 86 429.7 128.8 434.5C171.7 439.3 214.3 437.7 257.2 426.7C300 415.7 343 395.3 385.8 385.3C428.7 375.3 471.3 375.7 514.2 378.7C557 381.7 600 387.3 642.8 388.2C685.7 389 728.3 385 771.2 392.3C814 399.7 857 418.3 878.5 427.7L900 437L900 601L878.5 601C857 601 814 601 771.2 601C728.3 601 685.7 601 642.8 601C600 601 557 601 514.2 601C471.3 601 428.7 601 385.8 601C343 601 300 601 257.2 601C214.3 601 171.7 601 128.8 601C86 601 43 601 21.5 601L0 601Z" fill="#87a878"></path><path d="M0 445L21.5 437.2C43 429.3 86 413.7 128.8 405.3C171.7 397 214.3 396 257.2 409C300 422 343 449 385.8 459.5C428.7 470 471.3 464 514.2 451.7C557 439.3 600 420.7 642.8 410.5C685.7 400.3 728.3 398.7 771.2 404.5C814 410.3 857 423.7 878.5 430.3L900 437L900 601L878.5 601C857 601 814 601 771.2 601C728.3 601 685.7 601 642.8 601C600 601 557 601 514.2 601C471.3 601 428.7 601 385.8 601C343 601 300 601 257.2 601C214.3 601 171.7 601 128.8 601C86 601 43 601 21.5 601L0 601Z" fill="#488f7a"></path><path d="M0 497L21.5 492.5C43 488 86 479 128.8 471.7C171.7 464.3 214.3 458.7 257.2 454.7C300 450.7 343 448.3 385.8 448.7C428.7 449 471.3 452 514.2 456.2C557 460.3 600 465.7 642.8 466C685.7 466.3 728.3 461.7 771.2 457.2C814 452.7 857 448.3 878.5 446.2L900 444L900 601L878.5 601C857 601 814 601 771.2 601C728.3 601 685.7 601 642.8 601C600 601 557 601 514.2 601C471.3 601 428.7 601 385.8 601C343 601 300 601 257.2 601C214.3 601 171.7 601 128.8 601C86 601 43 601 21.5 601L0 601Z" fill="#00737c"></path><path d="M0 532L21.5 530.7C43 529.3 86 526.7 128.8 520.8C171.7 515 214.3 506 257.2 500C300 494 343 491 385.8 497.2C428.7 503.3 471.3 518.7 514.2 527.3C557 536 600 538 642.8 538C685.7 538 728.3 536 771.2 532.5C814 529 857 524 878.5 521.5L900 519L900 601L878.5 601C857 601 814 601 771.2 601C728.3 601 685.7 601 642.8 601C600 601 557 601 514.2 601C471.3 601 428.7 601 385.8 601C343 601 300 601 257.2 601C214.3 601 171.7 601 128.8 601C86 601 43 601 21.5 601L0 601Z" fill="#005475"></path><path d="M0 531L21.5 537C43 543 86 555 128.8 555C171.7 555 214.3 543 257.2 540.7C300 538.3 343 545.7 385.8 549.3C428.7 553 471.3 553 514.2 548.5C557 544 600 535 642.8 531.5C685.7 528 728.3 530 771.2 537C814 544 857 556 878.5 562L900 568L900 601L878.5 601C857 601 814 601 771.2 601C728.3 601 685.7 601 642.8 601C600 601 557 601 514.2 601C471.3 601 428.7 601 385.8 601C343 601 300 601 257.2 601C214.3 601 171.7 601 128.8 601C86 601 43 601 21.5 601L0 601Z" fill="#0f3460"></path></svg>